<?xml version="1.0" encoding="utf-8"?>
<!-- Generator: Adobe Illustrator 21.0.2, SVG Export Plug-In . SVG Version: 6.00 Build 0)  -->
<svg version="1.1" id="Layer_1" xmlns="http://www.w3.org/2000/svg" xmlns:xlink="http://www.w3.org/1999/xlink" x="0px" y="0px"
	 viewBox="0 0 267 262" style="enable-background:new 0 0 267 262;" xml:space="preserve">
<style type="text/css">
	.st0{fill:#D31245;}
</style>
<path class="st0" d="M133.2,1.3C51.5,1.3,0.6,71.1,0.9,133.6c0.3,62.6,45,114.3,94.5,127.1c0,0,1.4-13.1-8.9-20.3
	c-7.9-5.5-22.8-7.8-22.8-7.8V219l117.9,0.3l0.3,37.8c0,0,84.3-30,84.3-124.9C266.1,50.2,195.8,1.3,133.2,1.3z M133.8,194.2
	c-33.2,0-60-26.9-60-60c0-33.2,26.9-60,60-60c33.2,0,60,26.9,60,60C193.8,167.3,167,194.2,133.8,194.2z"/>
</svg>
